<svg xmlns="http://www.w3.org/2000/svg" xmlns:xlink="http://www.w3.org/1999/xlink" contentStyleType="text/css" data-diagram-type="DESCRIPTION" height="409px" preserveAspectRatio="none" style="width:3708px;height:409px;background:#FFFFFF;" version="1.1" viewBox="0 0 3708 409" width="3708px" zoomAndPan="magnify"><title>C3 - Component View (High-level) - Buyer Modules</title><defs/><g><g class="title" data-source-line="1"><text fill="#000000" font-family="sans-serif" font-size="14" font-weight="bold" lengthAdjust="spacing" textLength="399.2119" x="1647.394" y="22.9951">C3 - Component View (High-level) - Buyer Modules</text></g><!--cluster Backend Application (Spring Boot)--><g class="cluster" data-entity="Backend Application .Spring Boot." data-source-line="3" data-uid="ent0002" id="cluster_Backend Application .Spring Boot."><path d="M8.5,43.2969 L281.8232,43.2969 A3.75,3.75 0 0 1 284.3232,45.7969 L291.3232,65.5938 L3698.5,65.5938 A2.5,2.5 0 0 1 3701,68.0938 L3701,399.5769 A2.5,2.5 0 0 1 3698.5,402.0769 L8.5,402.0769 A2.5,2.5 0 0 1 6,399.5769 L6,45.7969 A2.5,2.5 0 0 1 8.5,43.2969" fill="none" style="stroke:#000000;stroke-width:1.5;"/><line style="stroke:#000000;stroke-width:1.5;" x1="6" x2="291.3232" y1="65.5938" y2="65.5938"/><text fill="#000000" font-family="sans-serif" font-size="14" font-weight="bold" lengthAdjust="spacing" textLength="272.3232" x="10" y="58.292">Backend Application (Spring Boot)</text></g><!--cluster Authentication & User Access--><g class="cluster" data-entity="Authentication . User Access" data-source-line="7" data-uid="ent0004" id="cluster_Authentication . User Access"><path d="M1336.5,165.8869 L1571.2617,165.8869 A3.75,3.75 0 0 1 1573.7617,168.3869 L1580.7617,188.1837 L1880.5,188.1837 A2.5,2.5 0 0 1 1883,190.6837 L1883,276.9869 A2.5,2.5 0 0 1 1880.5,279.4869 L1336.5,279.4869 A2.5,2.5 0 0 1 1334,276.9869 L1334,168.3869 A2.5,2.5 0 0 1 1336.5,165.8869" fill="none" style="stroke:#000000;stroke-width:1.5;"/><line style="stroke:#000000;stroke-width:1.5;" x1="1334" x2="1580.7617" y1="188.1837" y2="188.1837"/><text fill="#000000" font-family="sans-serif" font-size="14" font-weight="bold" lengthAdjust="spacing" textLength="233.7617" x="1338" y="180.882">Authentication &amp; User Access</text></g><!--cluster Product Catalog--><g class="cluster" data-entity="Product Catalog" data-source-line="13" data-uid="ent0008" id="cluster_Product Catalog"><path d="M1909.5,165.8869 L2037.4365,165.8869 A3.75,3.75 0 0 1 2039.9365,168.3869 L2046.9365,188.1837 L2516.5,188.1837 A2.5,2.5 0 0 1 2519,190.6837 L2519,276.9869 A2.5,2.5 0 0 1 2516.5,279.4869 L1909.5,279.4869 A2.5,2.5 0 0 1 1907,276.9869 L1907,168.3869 A2.5,2.5 0 0 1 1909.5,165.8869" fill="none" style="stroke:#000000;stroke-width:1.5;"/><line style="stroke:#000000;stroke-width:1.5;" x1="1907" x2="2046.9365" y1="188.1837" y2="188.1837"/><text fill="#000000" font-family="sans-serif" font-size="14" font-weight="bold" lengthAdjust="spacing" textLength="126.9365" x="1911" y="180.882">Product Catalog</text></g><!--cluster Shopping Cart--><g class="cluster" data-entity="Shopping Cart" data-source-line="19" data-uid="ent0012" id="cluster_Shopping Cart"><path d="M2545.5,165.8869 L2659.1904,165.8869 A3.75,3.75 0 0 1 2661.6904,168.3869 L2668.6904,188.1837 L3080.5,188.1837 A2.5,2.5 0 0 1 3083,190.6837 L3083,276.9869 A2.5,2.5 0 0 1 3080.5,279.4869 L2545.5,279.4869 A2.5,2.5 0 0 1 2543,276.9869 L2543,168.3869 A2.5,2.5 0 0 1 2545.5,165.8869" fill="none" style="stroke:#000000;stroke-width:1.5;"/><line style="stroke:#000000;stroke-width:1.5;" x1="2543" x2="2668.6904" y1="188.1837" y2="188.1837"/><text fill="#000000" font-family="sans-serif" font-size="14" font-weight="bold" lengthAdjust="spacing" textLength="112.6904" x="2547" y="180.882">Shopping Cart</text></g><!--cluster Ordering--><g class="cluster" data-entity="Ordering" data-source-line="25" data-uid="ent0016" id="cluster_Ordering"><path d="M3109.5,165.8869 L3180.5137,165.8869 A3.75,3.75 0 0 1 3183.0137,168.3869 L3190.0137,188.1837 L3674.5,188.1837 A2.5,2.5 0 0 1 3677,190.6837 L3677,276.9869 A2.5,2.5 0 0 1 3674.5,279.4869 L3109.5,279.4869 A2.5,2.5 0 0 1 3107,276.9869 L3107,168.3869 A2.5,2.5 0 0 1 3109.5,165.8869" fill="none" style="stroke:#000000;stroke-width:1.5;"/><line style="stroke:#000000;stroke-width:1.5;" x1="3107" x2="3190.0137" y1="188.1837" y2="188.1837"/><text fill="#000000" font-family="sans-serif" font-size="14" font-weight="bold" lengthAdjust="spacing" textLength="70.0137" x="3111" y="180.882">Ordering</text></g><!--cluster Payment--><g class="cluster" data-entity="Payment" data-source-line="31" data-uid="ent0020" id="cluster_Payment"><path d="M32.5,165.8869 L103.0762,165.8869 A3.75,3.75 0 0 1 105.5762,168.3869 L112.5762,188.1837 L663.5,188.1837 A2.5,2.5 0 0 1 666,190.6837 L666,276.9869 A2.5,2.5 0 0 1 663.5,279.4869 L32.5,279.4869 A2.5,2.5 0 0 1 30,276.9869 L30,168.3869 A2.5,2.5 0 0 1 32.5,165.8869" fill="none" style="stroke:#000000;stroke-width:1.5;"/><line style="stroke:#000000;stroke-width:1.5;" x1="30" x2="112.5762" y1="188.1837" y2="188.1837"/><text fill="#000000" font-family="sans-serif" font-size="14" font-weight="bold" lengthAdjust="spacing" textLength="69.5762" x="34" y="180.882">Payment</text></g><!--cluster Address Management--><g class="cluster" data-entity="Address Management" data-source-line="37" data-uid="ent0024" id="cluster_Address Management"><path d="M692.5,165.8869 L865.3691,165.8869 A3.75,3.75 0 0 1 867.8691,168.3869 L874.8691,188.1837 L1307.5,188.1837 A2.5,2.5 0 0 1 1310,190.6837 L1310,276.9869 A2.5,2.5 0 0 1 1307.5,279.4869 L692.5,279.4869 A2.5,2.5 0 0 1 690,276.9869 L690,168.3869 A2.5,2.5 0 0 1 692.5,165.8869" fill="none" style="stroke:#000000;stroke-width:1.5;"/><line style="stroke:#000000;stroke-width:1.5;" x1="690" x2="874.8691" y1="188.1837" y2="188.1837"/><text fill="#000000" font-family="sans-serif" font-size="14" font-weight="bold" lengthAdjust="spacing" textLength="171.8691" x="694" y="180.882">Address Management</text></g><!--entity API Controller Layer--><g class="entity" data-entity="API Controller Layer" data-source-line="5" data-uid="ent0003" id="entity_API Controller Layer"><rect fill="#F1F1F1" height="62.5938" rx="2.5" ry="2.5" style="stroke:#181818;stroke-width:0.5;" width="179.2549" x="1627.37" y="78.2969"/><rect fill="#F1F1F1" height="10" style="stroke:#181818;stroke-width:0.5;" width="15" x="1786.6249" y="83.2969"/><rect fill="#F1F1F1" height="2" style="stroke:#181818;stroke-width:0.5;" width="4" x="1784.6249" y="85.2969"/><rect fill="#F1F1F1" height="2" style="stroke:#181818;stroke-width:0.5;" width="4" x="1784.6249" y="89.2969"/><text fill="#000000" font-family="sans-serif" font-size="14" font-style="italic" lengthAdjust="spacing" textLength="79.8096" x="1672.0927" y="111.292">&#171;Interface&#187;</text><text fill="#000000" font-family="sans-serif" font-size="14" lengthAdjust="spacing" textLength="139.2549" x="1642.37" y="127.5889">API Controller Layer</text></g><!--entity Event Bus--><g class="entity" data-entity="Event Bus" data-source-line="43" data-uid="ent0028" id="entity_Event Bus"><rect fill="#F1F1F1" height="62.5938" rx="2.5" ry="2.5" style="stroke:#181818;stroke-width:0.5;" width="136.2744" x="1542.86" y="323.4869"/><rect fill="#F1F1F1" height="10" style="stroke:#181818;stroke-width:0.5;" width="15" x="1659.1344" y="328.4869"/><rect fill="#F1F1F1" height="2" style="stroke:#181818;stroke-width:0.5;" width="4" x="1657.1344" y="330.4869"/><rect fill="#F1F1F1" height="2" style="stroke:#181818;stroke-width:0.5;" width="4" x="1657.1344" y="334.4869"/><text fill="#000000" font-family="sans-serif" font-size="14" font-style="italic" lengthAdjust="spacing" textLength="94.2744" x="1558.86" y="356.482">&#171;Integration&#187;</text><text fill="#000000" font-family="sans-serif" font-size="14" lengthAdjust="spacing" textLength="70.3281" x="1570.8331" y="372.7789">Event Bus</text></g><!--entity Database--><g class="entity" data-entity="Database" data-source-line="44" data-uid="ent0029" id="entity_Database"><rect fill="#F1F1F1" height="62.5938" rx="2.5" ry="2.5" style="stroke:#181818;stroke-width:0.5;" width="113.9072" x="2038.05" y="323.4869"/><rect fill="#F1F1F1" height="10" style="stroke:#181818;stroke-width:0.5;" width="15" x="2131.9572" y="328.4869"/><rect fill="#F1F1F1" height="2" style="stroke:#181818;stroke-width:0.5;" width="4" x="2129.9572" y="330.4869"/><rect fill="#F1F1F1" height="2" style="stroke:#181818;stroke-width:0.5;" width="4" x="2129.9572" y="334.4869"/><text fill="#000000" font-family="sans-serif" font-size="14" font-style="italic" lengthAdjust="spacing" textLength="71.9072" x="2054.05" y="356.482">&#171;Storage&#187;</text><text fill="#000000" font-family="sans-serif" font-size="14" lengthAdjust="spacing" textLength="66.8008" x="2056.6032" y="372.7789">Database</text></g><!--entity AuthApplication--><g class="entity" data-entity="AuthApplication" data-source-line="8" data-uid="ent0005" id="entity_AuthApplication"><rect fill="#F1F1F1" height="62.5938" rx="2.5" ry="2.5" style="stroke:#181818;stroke-width:0.5;" width="151.0361" x="1350.48" y="200.8869"/><rect fill="#F1F1F1" height="10" style="stroke:#181818;stroke-width:0.5;" width="15" x="1481.5161" y="205.8869"/><rect fill="#F1F1F1" height="2" style="stroke:#181818;stroke-width:0.5;" width="4" x="1479.5161" y="207.8869"/><rect fill="#F1F1F1" height="2" style="stroke:#181818;stroke-width:0.5;" width="4" x="1479.5161" y="211.8869"/><text fill="#000000" font-family="sans-serif" font-size="14" font-style="italic" lengthAdjust="spacing" textLength="95.3545" x="1373.3208" y="233.882">&#171;Application&#187;</text><text fill="#000000" font-family="sans-serif" font-size="14" lengthAdjust="spacing" textLength="111.0361" x="1365.48" y="250.1789">AuthApplication</text></g><!--entity AuthDomain--><g class="entity" data-entity="AuthDomain" data-source-line="9" data-uid="ent0006" id="entity_AuthDomain"><rect fill="#F1F1F1" height="62.5938" rx="2.5" ry="2.5" style="stroke:#181818;stroke-width:0.5;" width="127.1377" x="1536.43" y="200.8869"/><rect fill="#F1F1F1" height="10" style="stroke:#181818;stroke-width:0.5;" width="15" x="1643.5677" y="205.8869"/><rect fill="#F1F1F1" height="2" style="stroke:#181818;stroke-width:0.5;" width="4" x="1641.5677" y="207.8869"/><rect fill="#F1F1F1" height="2" style="stroke:#181818;stroke-width:0.5;" width="4" x="1641.5677" y="211.8869"/><text fill="#000000" font-family="sans-serif" font-size="14" font-style="italic" lengthAdjust="spacing" textLength="71.4561" x="1559.2708" y="233.882">&#171;Domain&#187;</text><text fill="#000000" font-family="sans-serif" font-size="14" lengthAdjust="spacing" textLength="87.1377" x="1551.43" y="250.1789">AuthDomain</text></g><!--entity AuthInfrastructure--><g class="entity" data-entity="AuthInfrastructure" data-source-line="10" data-uid="ent0007" id="entity_AuthInfrastructure"><rect fill="#F1F1F1" height="62.5938" rx="2.5" ry="2.5" style="stroke:#181818;stroke-width:0.5;" width="168.9189" x="1698.54" y="200.8869"/><rect fill="#F1F1F1" height="10" style="stroke:#181818;stroke-width:0.5;" width="15" x="1847.4589" y="205.8869"/><rect fill="#F1F1F1" height="2" style="stroke:#181818;stroke-width:0.5;" width="4" x="1845.4589" y="207.8869"/><rect fill="#F1F1F1" height="2" style="stroke:#181818;stroke-width:0.5;" width="4" x="1845.4589" y="211.8869"/><text fill="#000000" font-family="sans-serif" font-size="14" font-style="italic" lengthAdjust="spacing" textLength="113.2373" x="1721.3808" y="233.882">&#171;Infrastructure&#187;</text><text fill="#000000" font-family="sans-serif" font-size="14" lengthAdjust="spacing" textLength="128.9189" x="1713.54" y="250.1789">AuthInfrastructure</text></g><!--entity CatalogApplication--><g class="entity" data-entity="CatalogApplication" data-source-line="14" data-uid="ent0009" id="entity_CatalogApplication"><rect fill="#F1F1F1" height="62.5938" rx="2.5" ry="2.5" style="stroke:#181818;stroke-width:0.5;" width="171.9883" x="1923.01" y="200.8869"/><rect fill="#F1F1F1" height="10" style="stroke:#181818;stroke-width:0.5;" width="15" x="2074.9983" y="205.8869"/><rect fill="#F1F1F1" height="2" style="stroke:#181818;stroke-width:0.5;" width="4" x="2072.9983" y="207.8869"/><rect fill="#F1F1F1" height="2" style="stroke:#181818;stroke-width:0.5;" width="4" x="2072.9983" y="211.8869"/><text fill="#000000" font-family="sans-serif" font-size="14" font-style="italic" lengthAdjust="spacing" textLength="95.3545" x="1956.3269" y="233.882">&#171;Application&#187;</text><text fill="#000000" font-family="sans-serif" font-size="14" lengthAdjust="spacing" textLength="131.9883" x="1938.01" y="250.1789">CatalogApplication</text></g><!--entity CatalogDomain--><g class="entity" data-entity="CatalogDomain" data-source-line="15" data-uid="ent0010" id="entity_CatalogDomain"><rect fill="#F1F1F1" height="62.5938" rx="2.5" ry="2.5" style="stroke:#181818;stroke-width:0.5;" width="148.0898" x="2129.96" y="200.8869"/><rect fill="#F1F1F1" height="10" style="stroke:#181818;stroke-width:0.5;" width="15" x="2258.0498" y="205.8869"/><rect fill="#F1F1F1" height="2" style="stroke:#181818;stroke-width:0.5;" width="4" x="2256.0498" y="207.8869"/><rect fill="#F1F1F1" height="2" style="stroke:#181818;stroke-width:0.5;" width="4" x="2256.0498" y="211.8869"/><text fill="#000000" font-family="sans-serif" font-size="14" font-style="italic" lengthAdjust="spacing" textLength="71.4561" x="2163.2769" y="233.882">&#171;Domain&#187;</text><text fill="#000000" font-family="sans-serif" font-size="14" lengthAdjust="spacing" textLength="108.0898" x="2144.96" y="250.1789">CatalogDomain</text></g><!--entity CatalogInfrastructure--><g class="entity" data-entity="CatalogInfrastructure" data-source-line="16" data-uid="ent0011" id="entity_CatalogInfrastructure"><rect fill="#F1F1F1" height="62.5938" rx="2.5" ry="2.5" style="stroke:#181818;stroke-width:0.5;" width="189.8711" x="2313.06" y="200.8869"/><rect fill="#F1F1F1" height="10" style="stroke:#181818;stroke-width:0.5;" width="15" x="2482.9311" y="205.8869"/><rect fill="#F1F1F1" height="2" style="stroke:#181818;stroke-width:0.5;" width="4" x="2480.9311" y="207.8869"/><rect fill="#F1F1F1" height="2" style="stroke:#181818;stroke-width:0.5;" width="4" x="2480.9311" y="211.8869"/><text fill="#000000" font-family="sans-serif" font-size="14" font-style="italic" lengthAdjust="spacing" textLength="113.2373" x="2346.3769" y="233.882">&#171;Infrastructure&#187;</text><text fill="#000000" font-family="sans-serif" font-size="14" lengthAdjust="spacing" textLength="149.8711" x="2328.06" y="250.1789">CatalogInfrastructure</text></g><!--entity CartApplication--><g class="entity" data-entity="CartApplication" data-source-line="20" data-uid="ent0013" id="entity_CartApplication"><rect fill="#F1F1F1" height="62.5938" rx="2.5" ry="2.5" style="stroke:#181818;stroke-width:0.5;" width="147.8232" x="2559.09" y="200.8869"/><rect fill="#F1F1F1" height="10" style="stroke:#181818;stroke-width:0.5;" width="15" x="2686.9132" y="205.8869"/><rect fill="#F1F1F1" height="2" style="stroke:#181818;stroke-width:0.5;" width="4" x="2684.9132" y="207.8869"/><rect fill="#F1F1F1" height="2" style="stroke:#181818;stroke-width:0.5;" width="4" x="2684.9132" y="211.8869"/><text fill="#000000" font-family="sans-serif" font-size="14" font-style="italic" lengthAdjust="spacing" textLength="95.3545" x="2580.3244" y="233.882">&#171;Application&#187;</text><text fill="#000000" font-family="sans-serif" font-size="14" lengthAdjust="spacing" textLength="107.8232" x="2574.09" y="250.1789">CartApplication</text></g><!--entity CartDomain--><g class="entity" data-entity="CartDomain" data-source-line="21" data-uid="ent0014" id="entity_CartDomain"><rect fill="#F1F1F1" height="62.5938" rx="2.5" ry="2.5" style="stroke:#181818;stroke-width:0.5;" width="123.9248" x="2742.04" y="200.8869"/><rect fill="#F1F1F1" height="10" style="stroke:#181818;stroke-width:0.5;" width="15" x="2845.9648" y="205.8869"/><rect fill="#F1F1F1" height="2" style="stroke:#181818;stroke-width:0.5;" width="4" x="2843.9648" y="207.8869"/><rect fill="#F1F1F1" height="2" style="stroke:#181818;stroke-width:0.5;" width="4" x="2843.9648" y="211.8869"/><text fill="#000000" font-family="sans-serif" font-size="14" font-style="italic" lengthAdjust="spacing" textLength="71.4561" x="2763.2744" y="233.882">&#171;Domain&#187;</text><text fill="#000000" font-family="sans-serif" font-size="14" lengthAdjust="spacing" textLength="83.9248" x="2757.04" y="250.1789">CartDomain</text></g><!--entity CartInfrastructure--><g class="entity" data-entity="CartInfrastructure" data-source-line="22" data-uid="ent0015" id="entity_CartInfrastructure"><rect fill="#F1F1F1" height="62.5938" rx="2.5" ry="2.5" style="stroke:#181818;stroke-width:0.5;" width="165.7061" x="2901.15" y="200.8869"/><rect fill="#F1F1F1" height="10" style="stroke:#181818;stroke-width:0.5;" width="15" x="3046.8561" y="205.8869"/><rect fill="#F1F1F1" height="2" style="stroke:#181818;stroke-width:0.5;" width="4" x="3044.8561" y="207.8869"/><rect fill="#F1F1F1" height="2" style="stroke:#181818;stroke-width:0.5;" width="4" x="3044.8561" y="211.8869"/><text fill="#000000" font-family="sans-serif" font-size="14" font-style="italic" lengthAdjust="spacing" textLength="113.2373" x="2922.3844" y="233.882">&#171;Infrastructure&#187;</text><text fill="#000000" font-family="sans-serif" font-size="14" lengthAdjust="spacing" textLength="125.7061" x="2916.15" y="250.1789">CartInfrastructure</text></g><!--entity OrderApplication--><g class="entity" data-entity="OrderApplication" data-source-line="26" data-uid="ent0017" id="entity_OrderApplication"><rect fill="#F1F1F1" height="62.5938" rx="2.5" ry="2.5" style="stroke:#181818;stroke-width:0.5;" width="158.2549" x="3122.87" y="200.8869"/><rect fill="#F1F1F1" height="10" style="stroke:#181818;stroke-width:0.5;" width="15" x="3261.1249" y="205.8869"/><rect fill="#F1F1F1" height="2" style="stroke:#181818;stroke-width:0.5;" width="4" x="3259.1249" y="207.8869"/><rect fill="#F1F1F1" height="2" style="stroke:#181818;stroke-width:0.5;" width="4" x="3259.1249" y="211.8869"/><text fill="#000000" font-family="sans-serif" font-size="14" font-style="italic" lengthAdjust="spacing" textLength="95.3545" x="3149.3202" y="233.882">&#171;Application&#187;</text><text fill="#000000" font-family="sans-serif" font-size="14" lengthAdjust="spacing" textLength="118.2549" x="3137.87" y="250.1789">OrderApplication</text></g><!--entity OrderDomain--><g class="entity" data-entity="OrderDomain" data-source-line="27" data-uid="ent0018" id="entity_OrderDomain"><rect fill="#F1F1F1" height="62.5938" rx="2.5" ry="2.5" style="stroke:#181818;stroke-width:0.5;" width="134.3564" x="3315.82" y="200.8869"/><rect fill="#F1F1F1" height="10" style="stroke:#181818;stroke-width:0.5;" width="15" x="3430.1764" y="205.8869"/><rect fill="#F1F1F1" height="2" style="stroke:#181818;stroke-width:0.5;" width="4" x="3428.1764" y="207.8869"/><rect fill="#F1F1F1" height="2" style="stroke:#181818;stroke-width:0.5;" width="4" x="3428.1764" y="211.8869"/><text fill="#000000" font-family="sans-serif" font-size="14" font-style="italic" lengthAdjust="spacing" textLength="71.4561" x="3342.2702" y="233.882">&#171;Domain&#187;</text><text fill="#000000" font-family="sans-serif" font-size="14" lengthAdjust="spacing" textLength="94.3564" x="3330.82" y="250.1789">OrderDomain</text></g><!--entity OrderInfrastructure--><g class="entity" data-entity="OrderInfrastructure" data-source-line="28" data-uid="ent0019" id="entity_OrderInfrastructure"><rect fill="#F1F1F1" height="62.5938" rx="2.5" ry="2.5" style="stroke:#181818;stroke-width:0.5;" width="176.1377" x="3484.93" y="200.8869"/><rect fill="#F1F1F1" height="10" style="stroke:#181818;stroke-width:0.5;" width="15" x="3641.0677" y="205.8869"/><rect fill="#F1F1F1" height="2" style="stroke:#181818;stroke-width:0.5;" width="4" x="3639.0677" y="207.8869"/><rect fill="#F1F1F1" height="2" style="stroke:#181818;stroke-width:0.5;" width="4" x="3639.0677" y="211.8869"/><text fill="#000000" font-family="sans-serif" font-size="14" font-style="italic" lengthAdjust="spacing" textLength="113.2373" x="3511.3802" y="233.882">&#171;Infrastructure&#187;</text><text fill="#000000" font-family="sans-serif" font-size="14" lengthAdjust="spacing" textLength="136.1377" x="3499.93" y="250.1789">OrderInfrastructure</text></g><!--entity PaymentApplication--><g class="entity" data-entity="PaymentApplication" data-source-line="32" data-uid="ent0021" id="entity_PaymentApplication"><rect fill="#F1F1F1" height="62.5938" rx="2.5" ry="2.5" style="stroke:#181818;stroke-width:0.5;" width="180.1436" x="45.93" y="200.8869"/><rect fill="#F1F1F1" height="10" style="stroke:#181818;stroke-width:0.5;" width="15" x="206.0736" y="205.8869"/><rect fill="#F1F1F1" height="2" style="stroke:#181818;stroke-width:0.5;" width="4" x="204.0736" y="207.8869"/><rect fill="#F1F1F1" height="2" style="stroke:#181818;stroke-width:0.5;" width="4" x="204.0736" y="211.8869"/><text fill="#000000" font-family="sans-serif" font-size="14" font-style="italic" lengthAdjust="spacing" textLength="95.3545" x="83.3245" y="233.882">&#171;Application&#187;</text><text fill="#000000" font-family="sans-serif" font-size="14" lengthAdjust="spacing" textLength="140.1436" x="60.93" y="250.1789">PaymentApplication</text></g><!--entity PaymentDomain--><g class="entity" data-entity="PaymentDomain" data-source-line="33" data-uid="ent0022" id="entity_PaymentDomain"><rect fill="#F1F1F1" height="62.5938" rx="2.5" ry="2.5" style="stroke:#181818;stroke-width:0.5;" width="156.2451" x="260.88" y="200.8869"/><rect fill="#F1F1F1" height="10" style="stroke:#181818;stroke-width:0.5;" width="15" x="397.1251" y="205.8869"/><rect fill="#F1F1F1" height="2" style="stroke:#181818;stroke-width:0.5;" width="4" x="395.1251" y="207.8869"/><rect fill="#F1F1F1" height="2" style="stroke:#181818;stroke-width:0.5;" width="4" x="395.1251" y="211.8869"/><text fill="#000000" font-family="sans-serif" font-size="14" font-style="italic" lengthAdjust="spacing" textLength="71.4561" x="298.2745" y="233.882">&#171;Domain&#187;</text><text fill="#000000" font-family="sans-serif" font-size="14" lengthAdjust="spacing" textLength="116.2451" x="275.88" y="250.1789">PaymentDomain</text></g><!--entity PaymentInfrastructure--><g class="entity" data-entity="PaymentInfrastructure" data-source-line="34" data-uid="ent0023" id="entity_PaymentInfrastructure"><rect fill="#F1F1F1" height="62.5938" rx="2.5" ry="2.5" style="stroke:#181818;stroke-width:0.5;" width="198.0264" x="451.99" y="200.8869"/><rect fill="#F1F1F1" height="10" style="stroke:#181818;stroke-width:0.5;" width="15" x="630.0164" y="205.8869"/><rect fill="#F1F1F1" height="2" style="stroke:#181818;stroke-width:0.5;" width="4" x="628.0164" y="207.8869"/><rect fill="#F1F1F1" height="2" style="stroke:#181818;stroke-width:0.5;" width="4" x="628.0164" y="211.8869"/><text fill="#000000" font-family="sans-serif" font-size="14" font-style="italic" lengthAdjust="spacing" textLength="113.2373" x="489.3845" y="233.882">&#171;Infrastructure&#187;</text><text fill="#000000" font-family="sans-serif" font-size="14" lengthAdjust="spacing" textLength="158.0264" x="466.99" y="250.1789">PaymentInfrastructure</text></g><!--entity AddressApplication--><g class="entity" data-entity="AddressApplication" data-source-line="38" data-uid="ent0025" id="entity_AddressApplication"><rect fill="#F1F1F1" height="62.5938" rx="2.5" ry="2.5" style="stroke:#181818;stroke-width:0.5;" width="174.5313" x="705.73" y="200.8869"/><rect fill="#F1F1F1" height="10" style="stroke:#181818;stroke-width:0.5;" width="15" x="860.2613" y="205.8869"/><rect fill="#F1F1F1" height="2" style="stroke:#181818;stroke-width:0.5;" width="4" x="858.2613" y="207.8869"/><rect fill="#F1F1F1" height="2" style="stroke:#181818;stroke-width:0.5;" width="4" x="858.2613" y="211.8869"/><text fill="#000000" font-family="sans-serif" font-size="14" font-style="italic" lengthAdjust="spacing" textLength="95.3545" x="740.3184" y="233.882">&#171;Application&#187;</text><text fill="#000000" font-family="sans-serif" font-size="14" lengthAdjust="spacing" textLength="134.5313" x="720.73" y="250.1789">AddressApplication</text></g><!--entity AddressDomain--><g class="entity" data-entity="AddressDomain" data-source-line="39" data-uid="ent0026" id="entity_AddressDomain"><rect fill="#F1F1F1" height="62.5938" rx="2.5" ry="2.5" style="stroke:#181818;stroke-width:0.5;" width="150.6328" x="915.68" y="200.8869"/><rect fill="#F1F1F1" height="10" style="stroke:#181818;stroke-width:0.5;" width="15" x="1046.3128" y="205.8869"/><rect fill="#F1F1F1" height="2" style="stroke:#181818;stroke-width:0.5;" width="4" x="1044.3128" y="207.8869"/><rect fill="#F1F1F1" height="2" style="stroke:#181818;stroke-width:0.5;" width="4" x="1044.3128" y="211.8869"/><text fill="#000000" font-family="sans-serif" font-size="14" font-style="italic" lengthAdjust="spacing" textLength="71.4561" x="950.2684" y="233.882">&#171;Domain&#187;</text><text fill="#000000" font-family="sans-serif" font-size="14" lengthAdjust="spacing" textLength="110.6328" x="930.68" y="250.1789">AddressDomain</text></g><!--entity AddressInfrastructure--><g class="entity" data-entity="AddressInfrastructure" data-source-line="40" data-uid="ent0027" id="entity_AddressInfrastructure"><rect fill="#F1F1F1" height="62.5938" rx="2.5" ry="2.5" style="stroke:#181818;stroke-width:0.5;" width="192.4141" x="1101.79" y="200.8869"/><rect fill="#F1F1F1" height="10" style="stroke:#181818;stroke-width:0.5;" width="15" x="1274.2041" y="205.8869"/><rect fill="#F1F1F1" height="2" style="stroke:#181818;stroke-width:0.5;" width="4" x="1272.2041" y="207.8869"/><rect fill="#F1F1F1" height="2" style="stroke:#181818;stroke-width:0.5;" width="4" x="1272.2041" y="211.8869"/><text fill="#000000" font-family="sans-serif" font-size="14" font-style="italic" lengthAdjust="spacing" textLength="113.2373" x="1136.3784" y="233.882">&#171;Infrastructure&#187;</text><text fill="#000000" font-family="sans-serif" font-size="14" lengthAdjust="spacing" textLength="152.4141" x="1116.79" y="250.1789">AddressInfrastructure</text></g><!--link API Controller Layer to AuthApplication--><g class="link" data-entity-1="API Controller Layer" data-entity-2="AuthApplication" data-source-line="48" data-uid="lnk30" id="link_API Controller Layer_AuthApplication"><path d="M1626.96,123.5669 C1592.08,130.7469 1552.56,141.6369 1519,157.8869 C1496.61,168.7269 1479.1225,181.7425 1462.1425,196.6225" fill="none" id="API Controller Layer-to-AuthApplication" style="stroke:#181818;stroke-width:1;"/><polygon fill="#181818" points="1457.63,200.5769,1467.035,197.6536,1461.3904,197.2815,1461.7625,191.6369,1457.63,200.5769" style="stroke:#181818;stroke-width:1;"/></g><!--link API Controller Layer to CatalogApplication--><g class="link" data-entity-1="API Controller Layer" data-entity-2="CatalogApplication" data-source-line="49" data-uid="lnk31" id="link_API Controller Layer_CatalogApplication"><path d="M1806.72,131.7469 C1831.84,138.8469 1858.87,147.6269 1883,157.8869 C1910.48,169.5769 1934.3008,182.9049 1957.4908,197.2849" fill="none" id="API Controller Layer-to-CatalogApplication" style="stroke:#181818;stroke-width:1;"/><polygon fill="#181818" points="1962.59,200.4469,1957.0492,192.3044,1958.3407,197.8119,1952.8332,199.1034,1962.59,200.4469" style="stroke:#181818;stroke-width:1;"/></g><!--link API Controller Layer to CartApplication--><g class="link" data-entity-1="API Controller Layer" data-entity-2="CartApplication" data-source-line="50" data-uid="lnk32" id="link_API Controller Layer_CartApplication"><path d="M1807.1,110.1869 C1987.97,110.3069 2389.04,115.5169 2519,157.8869 C2546.96,167.0069 2569.9826,181.1202 2591.1426,196.8302" fill="none" id="API Controller Layer-to-CartApplication" style="stroke:#181818;stroke-width:1;"/><polygon fill="#181818" points="2595.96,200.4069,2591.1183,191.8303,2591.9455,197.4263,2586.3494,198.2535,2595.96,200.4069" style="stroke:#181818;stroke-width:1;"/></g><!--link API Controller Layer to OrderApplication--><g class="link" data-entity-1="API Controller Layer" data-entity-2="OrderApplication" data-source-line="51" data-uid="lnk33" id="link_API Controller Layer_OrderApplication"><path d="M1806.92,111.0369 C2091.63,112.8269 2961.68,121.2469 3083,157.8869 C3112.27,166.7269 3136.671,181.1347 3158.871,197.0247" fill="none" id="API Controller Layer-to-OrderApplication" style="stroke:#181818;stroke-width:1;"/><polygon fill="#181818" points="3163.75,200.5169,3158.7597,192.0259,3159.6842,197.6067,3154.1034,198.5312,3163.75,200.5169" style="stroke:#181818;stroke-width:1;"/></g><!--link API Controller Layer to PaymentApplication--><g class="link" data-entity-1="API Controller Layer" data-entity-2="PaymentApplication" data-source-line="52" data-uid="lnk34" id="link_API Controller Layer_PaymentApplication"><path d="M1627.06,110.5469 C1327.33,110.8069 373.98,115.0169 243,157.8869 C216.04,166.7169 194.3683,180.8501 174.5683,196.7501" fill="none" id="API Controller Layer-to-PaymentApplication" style="stroke:#181818;stroke-width:1;"/><polygon fill="#181818" points="169.89,200.5069,179.412,197.9905,173.7886,197.3762,174.4029,191.7528,169.89,200.5069" style="stroke:#181818;stroke-width:1;"/></g><!--link API Controller Layer to AddressApplication--><g class="link" data-entity-1="API Controller Layer" data-entity-2="AddressApplication" data-source-line="53" data-uid="lnk35" id="link_API Controller Layer_AddressApplication"><path d="M1626.98,113.0269 C1428.47,118.7769 965.37,134.5469 898,157.8869 C871.74,166.9869 850.7488,180.8959 831.3788,196.6159" fill="none" id="API Controller Layer-to-AddressApplication" style="stroke:#181818;stroke-width:1;"/><polygon fill="#181818" points="826.72,200.3969,836.2288,197.8314,830.6023,197.2461,831.1876,191.6196,826.72,200.3969" style="stroke:#181818;stroke-width:1;"/></g><!--link AuthDomain to Event Bus--><g class="link" data-entity-1="AuthDomain" data-entity-2="Event Bus" data-source-line="56" data-uid="lnk36" id="link_AuthDomain_Event Bus"><path d="M1602.8,263.9269 C1604.46,282.0769 1606.0065,298.9815 1607.6565,317.1215" fill="none" id="AuthDomain-to-Event Bus" style="stroke:#181818;stroke-width:1;"/><polygon fill="#181818" points="1608.2,323.0969,1611.3683,313.7715,1607.7471,318.1174,1603.4012,314.4962,1608.2,323.0969" style="stroke:#181818;stroke-width:1;"/></g><!--link CatalogDomain to Event Bus--><g class="link" data-entity-1="CatalogDomain" data-entity-2="Event Bus" data-source-line="57" data-uid="lnk37" id="link_CatalogDomain_Event Bus"><path d="M2160.37,263.7769 C2145.62,272.7769 2128.65,281.7369 2112,287.4869 C1963.54,338.7269 1783.7479,350.5589 1685.4179,353.1489" fill="none" id="CatalogDomain-to-Event Bus" style="stroke:#181818;stroke-width:1;"/><polygon fill="#181818" points="1679.42,353.3069,1688.5222,357.0685,1684.4183,353.1752,1688.3116,349.0713,1679.42,353.3069" style="stroke:#181818;stroke-width:1;"/></g><!--link CartDomain to Event Bus--><g class="link" data-entity-1="CartDomain" data-entity-2="Event Bus" data-source-line="58" data-uid="lnk38" id="link_CartDomain_Event Bus"><path d="M2768.02,263.7269 C2754.97,273.0669 2739.6,282.2469 2724,287.4869 C2575.7,337.2469 2177.12,313.7169 2021,323.4869 C1900.79,330.9969 1766.8912,341.3021 1685.5012,347.7621" fill="none" id="CartDomain-to-Event Bus" style="stroke:#181818;stroke-width:1;"/><polygon fill="#181818" points="1679.52,348.2369,1688.8083,351.5122,1684.5043,347.8413,1688.1753,343.5373,1679.52,348.2369" style="stroke:#181818;stroke-width:1;"/></g><!--link OrderDomain to Event Bus--><g class="link" data-entity-1="OrderDomain" data-entity-2="Event Bus" data-source-line="59" data-uid="lnk39" id="link_OrderDomain_Event Bus"><path d="M3345.08,263.9369 C3331.37,273.2969 3315.25,282.4369 3299,287.4869 C3163.33,329.5969 2162.87,316.2469 2021,323.4869 C1900.71,329.6169 1766.8284,340.3177 1685.4684,347.2477" fill="none" id="OrderDomain-to-Event Bus" style="stroke:#181818;stroke-width:1;"/><polygon fill="#181818" points="1679.49,347.7569,1688.797,350.9786,1684.472,347.3325,1688.118,343.0075,1679.49,347.7569" style="stroke:#181818;stroke-width:1;"/></g><!--link PaymentDomain to Event Bus--><g class="link" data-entity-1="PaymentDomain" data-entity-2="Event Bus" data-source-line="60" data-uid="lnk40" id="link_PaymentDomain_Event Bus"><path d="M382.97,263.9569 C398.41,273.1869 416.33,282.2569 434,287.4869 C643.74,349.5569 1317.79,354.2015 1536.54,354.0315" fill="none" id="PaymentDomain-to-Event Bus" style="stroke:#181818;stroke-width:1;"/><polygon fill="#181818" points="1542.54,354.0269,1533.54,350.0269,1537.54,354.0269,1533.54,358.0269,1542.54,354.0269" style="stroke:#181818;stroke-width:1;"/></g><!--link AddressDomain to Event Bus--><g class="link" data-entity-1="AddressDomain" data-entity-2="Event Bus" data-source-line="61" data-uid="lnk41" id="link_AddressDomain_Event Bus"><path d="M1035.12,263.8369 C1050.03,272.8369 1067.18,281.7769 1084,287.4869 C1242.07,341.0669 1434.0709,351.9103 1536.5109,353.7303" fill="none" id="AddressDomain-to-Event Bus" style="stroke:#181818;stroke-width:1;"/><polygon fill="#181818" points="1542.51,353.8369,1533.5825,349.6776,1537.5108,353.7481,1533.4404,357.6764,1542.51,353.8369" style="stroke:#181818;stroke-width:1;"/></g><!--link AuthInfrastructure to Database--><g class="link" data-entity-1="AuthInfrastructure" data-entity-2="Database" data-source-line="64" data-uid="lnk42" id="link_AuthInfrastructure_Database"><path d="M1850.84,263.9669 C1868.97,271.8969 1888.64,280.2369 1907,287.4869 C1950.46,304.6369 1994.678,320.2095 2032.148,332.9195" fill="none" id="AuthInfrastructure-to-Database" style="stroke:#181818;stroke-width:1;"/><polygon fill="#181818" points="2037.83,334.8469,2030.5919,328.1678,2033.095,333.2407,2028.0221,335.7438,2037.83,334.8469" style="stroke:#181818;stroke-width:1;"/></g><!--link CatalogInfrastructure to Database--><g class="link" data-entity-1="CatalogInfrastructure" data-entity-2="Database" data-source-line="65" data-uid="lnk43" id="link_CatalogInfrastructure_Database"><path d="M2348.5,263.8469 C2331.73,271.9869 2313.32,280.4669 2296,287.4869 C2248.32,306.8069 2198.4204,323.071 2157.7804,335.431" fill="none" id="CatalogInfrastructure-to-Database" style="stroke:#181818;stroke-width:1;"/><polygon fill="#181818" points="2152.04,337.1769,2161.8145,338.385,2156.8237,335.722,2159.4867,330.7312,2152.04,337.1769" style="stroke:#181818;stroke-width:1;"/></g><!--link CartInfrastructure to Database--><g class="link" data-entity-1="CartInfrastructure" data-entity-2="Database" data-source-line="66" data-uid="lnk44" id="link_CartInfrastructure_Database"><path d="M2936.43,263.9269 C2920.1,273.0469 2901.32,282.0469 2883,287.4869 C2745.88,328.1969 2315.8964,346.3505 2158.4264,351.7705" fill="none" id="CartInfrastructure-to-Database" style="stroke:#181818;stroke-width:1;"/><polygon fill="#181818" points="2152.43,351.9769,2161.5623,355.6649,2157.427,351.8049,2161.2871,347.6697,2152.43,351.9769" style="stroke:#181818;stroke-width:1;"/></g><!--link OrderInfrastructure to Database--><g class="link" data-entity-1="OrderInfrastructure" data-entity-2="Database" data-source-line="67" data-uid="lnk45" id="link_OrderInfrastructure_Database"><path d="M3524.31,263.8769 C3507.16,273.1669 3487.32,282.2869 3468,287.4869 C3213.92,355.8169 2384.9199,355.6531 2158.2299,354.2831" fill="none" id="OrderInfrastructure-to-Database" style="stroke:#181818;stroke-width:1;"/><polygon fill="#181818" points="2152.23,354.2469,2161.2057,358.3012,2157.2299,354.2771,2161.254,350.3013,2152.23,354.2469" style="stroke:#181818;stroke-width:1;"/></g><!--link PaymentInfrastructure to Database--><g class="link" data-entity-1="PaymentInfrastructure" data-entity-2="Database" data-source-line="68" data-uid="lnk46" id="link_PaymentInfrastructure_Database"><path d="M616.42,263.9669 C639.21,273.2669 665.26,282.3669 690,287.4869 C909.27,332.8569 1473.43,310.9869 1697,323.4869 C1818.43,330.2769 1954.4424,341.4687 2031.7324,348.1687" fill="none" id="PaymentInfrastructure-to-Database" style="stroke:#181818;stroke-width:1;"/><polygon fill="#181818" points="2037.71,348.6869,2029.0891,343.9246,2032.7287,348.2551,2028.3982,351.8947,2037.71,348.6869" style="stroke:#181818;stroke-width:1;"/></g><!--link AddressInfrastructure to Database--><g class="link" data-entity-1="AddressInfrastructure" data-entity-2="Database" data-source-line="69" data-uid="lnk47" id="link_AddressInfrastructure_Database"><path d="M1263.83,263.9769 C1285.72,272.9769 1310.5,281.8969 1334,287.4869 C1368.15,295.5969 1860.4788,335.1719 2031.7288,348.7719" fill="none" id="AddressInfrastructure-to-Database" style="stroke:#181818;stroke-width:1;"/><polygon fill="#181818" points="2037.71,349.2469,2029.0549,344.5469,2032.7257,348.851,2028.4216,352.5218,2037.71,349.2469" style="stroke:#181818;stroke-width:1;"/></g><!--SRC=[dPHBJ-im48Nt_XKZ5ZmMMR65IccBH2KGY8gxgUx2rp6fXMj7zWI44F_zJjoGvkMsQZUDSuudNvmpWmgrXDar932pcy8QQH3-AFa9b_SgNoTQVaXzHUgq_98E7crMQkaPAxXuvxc4iobTI9D1MXHQ2OxA6hXS5awP7ARMujKPV3C6i4gV5_G8WyvgJPKUEDNx2pSt2uFIlN4X9vFArnHEIrmJp6_DStZrj2qLGdfVrGIeYfAfzUIgNcj95HlNt6wu2eRjLLjRc3V7FRfIOEda5gfz9tX_EdJFZav28CmuSctp1gXU7sQgZJ6iMZw1RBcsHL6T_emxR74vF0RAOPp8uGauJowJLHWQad3ZC4gmnLY2UCfNuryRobJ3KgyFqzJ664yjdq2KPfcZGCCZDxJkmDNI4V7U6gC9tyh7mwtkFgefC2tzRt_cRlV0rPoY-O_xK6A9rX4t2RJp0cxf1ozI1xTVgyA7MopI_4ao6RRmNlD8UntmTsE_rpn8vbxtI7Rsl-VmSrP75iuwoPoYVz3Al7lMcLTXx-w3iFxW6D5tFJmGErqrK7if7-YzeFLrUfiGAH3M62b21jZeW0qxcnonsBGRseOZgEyP7GrzKwHV-xP8vtHj_m40]--></g></svg>